<svg xmlns="http://www.w3.org/2000/svg" version="1.1" xmlns:xlink="http://www.w3.org/1999/xlink" xmlns:svgjs="http://svgjs.dev/svgjs" width="1500" height="1525" viewBox="0 0 1000 1125"><g transform="matrix(1,0,0,1,1.7053025658242404e-13,0)"><svg viewBox="0 0 320 360" data-background-color="#1f0f53" preserveAspectRatio="xMidYMid meet" height="1125" width="1000" xmlns="http://www.w3.org/2000/svg" xmlns:xlink="http://www.w3.org/1999/xlink"><defs></defs><g id="tight-bounds" transform="matrix(1,0,0,1,0,0)"><svg viewBox="0 0 320 360" height="360" width="320"><g><svg></svg></g><g><svg viewBox="0 0 320 360" height="360" width="320"><g><path d="M320 204.145c-0.08-8.44-5.414-15.128-5.494-23.568-0.04-8.44 5.215-18.631 5.136-27.071-2.667-8.002-9.833-12.7-12.501-20.702-2.667-8.002-0.836-19.348-3.463-27.35-5.016-6.808-13.297-9.037-18.274-15.805-5.016-6.808-6.768-18.154-11.744-24.921-6.847-4.897-15.407-4.499-22.294-9.396-6.847-4.897-12.023-15.168-18.91-20.065-8.042-2.548-16.044 0.518-24.086-2.07-8.042-2.548-16.123-10.709-24.165-13.257-8.44 0.08-15.128 5.414-23.568 5.494-8.44 0.04-18.631-5.215-27.071-5.135-8.002 2.667-12.7 9.833-20.702 12.5-8.002 2.667-19.348 0.836-27.35 3.504-6.808 5.016-9.037 13.297-15.805 18.273-6.808 5.016-18.154 6.768-24.922 11.784-4.897 6.847-4.499 15.407-9.395 22.294-4.897 6.847-15.168 12.023-20.065 18.91-2.548 8.042 0.478 16.044-2.07 24.086-2.548 8.042-10.709 16.123-13.257 24.165 0.04 8.44 5.414 15.128 5.494 23.568 0.04 8.44-5.215 18.631-5.136 27.071 2.667 8.002 9.833 12.7 12.501 20.702 2.667 8.002 0.836 19.348 3.503 27.35 5.016 6.808 13.297 9.037 18.273 15.845 5.016 6.808 6.768 18.154 11.745 24.921 6.847 4.897 15.407 4.499 22.294 9.396 6.847 4.897 12.023 15.168 18.91 20.065 8.042 2.548 16.044-0.478 24.086 2.07 8.042 2.548 16.123 10.709 24.165 13.257 8.44-0.08 15.128-5.414 23.568-5.494 8.44-0.04 18.631 5.215 27.071 5.135 8.002-2.667 12.7-9.833 20.702-12.5 8.002-2.667 19.348-0.836 27.35-3.504 6.808-5.016 9.037-13.297 15.845-18.273 6.808-5.016 18.154-6.768 24.921-11.744 4.897-6.847 4.499-15.407 9.396-22.294 4.897-6.847 15.168-12.023 20.064-18.91 2.548-8.042-0.478-16.044 2.071-24.086 2.468-8.121 10.63-16.203 13.177-24.245zM305.987 227.395c-3.623 7.126-12.501 13.456-16.164 20.582-3.623 7.126-2.03 15.088-5.653 22.215-5.653 5.653-16.044 8.918-21.737 14.57-5.653 5.653-6.569 13.735-12.261 19.388-7.126 3.623-18.034 3.503-25.161 7.166-7.126 3.623-10.51 11.028-17.636 14.651-7.922 1.234-18.233-2.229-26.156-0.996-7.922 1.234-13.416 7.246-21.299 8.48-7.922-1.234-16.641-7.763-24.563-8.997-7.922-1.274-14.969 2.747-22.891 1.473-7.126-3.623-13.456-12.54-20.582-16.163-7.126-3.623-15.088-2.03-22.255-5.654-5.653-5.653-8.918-16.044-14.571-21.736-5.653-5.653-13.735-6.609-19.387-12.262-3.623-7.126-3.503-18.034-7.166-25.161-3.623-7.126-11.028-10.51-14.651-17.636-1.234-7.922 2.229-18.233 0.995-26.156-1.274-7.922-7.246-13.416-8.479-21.298 1.274-7.922 7.763-16.641 8.997-24.564 1.234-7.922-2.747-14.969-1.473-22.891 3.623-7.126 12.54-13.456 16.163-20.582 3.623-7.126 2.03-15.088 5.653-22.254 5.653-5.653 16.044-8.918 21.737-14.571 5.653-5.653 6.609-13.735 12.262-19.388 7.126-3.623 18.034-3.503 25.16-7.166 7.126-3.623 10.51-11.028 17.637-14.651 7.922-1.234 18.233 2.229 26.155 0.996 7.922-1.234 13.416-7.246 21.299-8.48 7.922 1.234 16.641 7.763 24.564 8.997 7.922 1.274 14.969-2.747 22.891-1.473 7.126 3.623 13.456 12.54 20.582 16.163 7.126 3.623 15.088 2.03 22.254 5.654 5.653 5.653 8.918 16.044 14.571 21.736 5.653 5.653 13.735 6.609 19.388 12.262 3.623 7.126 3.503 18.034 7.166 25.161 3.623 7.126 11.028 10.51 14.65 17.636 1.274 7.922-2.229 18.233-0.995 26.156 1.234 7.922 7.246 13.416 8.48 21.298-1.234 7.922-7.763 16.641-8.997 24.564-1.234 7.922 2.747 15.009 1.473 22.931z" fill="#ffdb99" data-fill-palette-color="tertiary"></path></g><g transform="matrix(1,0,0,1,48,146.3344947028224)"><svg viewBox="0 0 224 67.33101059435519" height="67.33101059435519" width="224"><g><svg viewBox="0 0 333.64502356284817 100.2886456083215" height="67.33101059435519" width="224"><g transform="matrix(1,0,0,1,0,13.860442338053119)"><svg viewBox="0 0 224 72.56776093221526" height="72.56776093221526" width="224"><g><svg viewBox="0 0 224 72.56776093221526" height="72.56776093221526" width="224"><g><svg viewBox="0 0 224 39.63290615957007" height="39.63290615957007" width="224"><g transform="matrix(1,0,0,1,0,0)"><svg width="224" viewBox="0.800000011920929 -32.54999923706055 241.87998962402344 42.79999923706055" height="39.63290615957007" data-palette-color="#ffdb99"><path d="M21.15-2.05L21.15-2.05Q19.95-0.2 19.95 0.35 19.95 0.9 20.4 1.15L20.4 1.15Q20.4 1.2 19.5 1.9L19.5 1.9Q18.7 2.3 17.7 2.3 16.7 2.3 16.25 2.08 15.8 1.85 15.95 1.35L15.95 1.35Q16.65-0.9 21.2-7.68 25.75-14.45 27.3-17.25L27.3-17.25Q30.65-23.3 30.65-26.9L30.65-26.9Q30.65-28.4 30.15-29.45L30.15-29.45Q29.15-31.5 25.4-31.5L25.4-31.5Q19.55-31.5 13.3-26.45L13.3-26.45Q8.3-22.4 5.65-17.88 3-13.35 3-9.8L3-9.8Q3-4.7 7.5-4.6L7.5-4.6Q7.7-4.6 7.9-4.6L7.9-4.6Q13.65-4.6 16.8-8.75L16.8-8.75Q18-10.4 18-11.55 18-12.7 17.5-13L17.5-13Q17.45-13.05 17.45-13.2 17.45-13.35 17.75-13.35L17.75-13.35Q19.05-13.35 19.05-11.65L19.05-11.65Q19.05-10.6 18.03-8.8 17-7 14.4-5.4 11.8-3.8 8.35-3.8 4.9-3.8 2.85-5.95 0.8-8.1 0.8-11.6L0.8-11.6Q0.8-19.5 11.1-27.75L11.1-27.75Q13.75-29.85 18.07-31.2 22.4-32.55 26.35-32.55 30.3-32.55 31.73-31.18 33.15-29.8 33.15-27.5L33.15-27.5Q33.15-24 30.3-18.05L30.3-18.05Q29.4-16.2 26.25-11.3L26.25-11.3 30.1-16.2Q32.9-19.85 39.8-26.6L39.8-26.6Q41.3-28.05 43.13-29.03 44.95-30 46.25-30L46.25-30Q48.05-30 48.05-28.1L48.05-28.1Q48.05-26.45 46.48-23.13 44.9-19.8 43.3-16.82 41.7-13.85 41.35-12.93 41-12 40.85-11.45 40.7-10.9 40.65-10.85L40.65-10.85Q40.8-11.1 43.95-14.68 47.1-18.25 53.25-23.6L53.25-23.6 61.25-30.2Q62.2-31 62.95-31 63.7-31 64.17-29.75 64.65-28.5 64.65-27.73 64.65-26.95 62.25-24.5L62.25-24.5Q56-18.1 51.65-10.5 47.3-2.9 47.3 0.35L47.3 0.35Q47.3 1.2 47.6 1.53 47.9 1.85 48.55 1.73 49.2 1.6 51.28 0.7 53.35-0.2 54-0.35L54-0.35Q54.25-0.25 54.25-0.1L54.25-0.1Q54.25 0.65 51.63 2 49 3.35 47.68 3.35 46.35 3.35 46.05 2.9L46.05 2.9Q45.15 1.6 45.15-0.25L45.15-0.25Q45.15-4.55 49.75-12.6L49.75-12.6Q52.7-17.65 58.85-26.2L58.85-26.2Q54.05-22.3 45.85-14.25 37.65-6.2 35.1-1.65L35.1-1.65Q33.8 0.7 31.95 0.7L31.95 0.7Q31.1 0.7 31.1 0.1L31.1 0.1Q31.1-0.1 32.13-1.7 33.15-3.3 36.65-9.2L36.65-9.2Q45.25-24.15 45.25-27.2L45.25-27.2Q45.25-28 44.7-28L44.7-28Q43.9-28 42.35-26.65L42.35-26.65Q36.8-22 30.55-14.5 24.3-7 21.15-2.05ZM70.8 0.3L70.8 0.3Q70.55 0.35 69.72 0.35 68.9 0.35 68.07-0.3 67.25-0.95 67.25-1.98 67.25-3 67.62-4.25 68-5.5 68.15-6.15L68.15-6.15Q62.4 0.55 59.15 0.55L59.15 0.55Q57.1 0.55 56.9-2L56.9-2Q56.9-2.2 56.9-2.35L56.9-2.35Q56.9-4.5 59.5-8.15L59.5-8.15Q58.05-6.85 56.55-5.15L56.55-5.15Q56.35-4.95 56.05-4.95L56.05-4.95Q55.85-4.95 55.85-5.2 55.85-5.45 56.3-6.05L56.3-6.05 63.2-14.15Q64.5-15.65 65.85-15.65 67.2-15.65 67.2-14.75L67.2-14.75Q67.2-14.4 66.9-14.1L66.9-14.1Q64.9-12.25 61.87-7.95 58.85-3.65 58.85-1.6L58.85-1.6Q58.85-0.7 59.45-0.7L59.45-0.7Q61.55-0.7 65.55-4.85L65.55-4.85Q66.95-6.25 70.75-11.03 74.55-15.8 75.75-15.8L75.75-15.8Q77.55-15.8 77.55-14.4L77.55-14.4Q77.55-13.9 75.45-11.5L75.45-11.5Q72.6-8.05 71.1-5.88 69.6-3.7 69.6-2.35 69.6-1 70.35-1L70.35-1Q70.7-1 71.15-1.2L71.15-1.2Q74.6-2.7 79.4-8.2L79.4-8.2Q79.7-8.55 80-8.55 80.3-8.55 80.3-8.22 80.3-7.9 79.95-7.5L79.95-7.5Q77.8-5 74.9-2.48 72 0.05 70.8 0.3ZM88.85-1.8L87.25-0.75Q85.8 0.1 83.67 0.1 81.55 0.1 80.42-1.3 79.3-2.7 78.5-5.75L78.5-5.75Q77.6-4.85 77.25-4.85L77.25-4.85Q77-4.85 77-5.2 77-5.55 77.25-5.8L77.25-5.8Q78.9-7.85 82.85-11.7L82.85-11.7 89.15-17.6Q91.85-20.15 92.35-20.15L92.35-20.15Q93.95-20.15 93.95-18.95L93.95-18.95Q93.95-18.35 93.47-17.78 93-17.2 92.77-16.88 92.55-16.55 92.3-16.25L92.3-16.25Q91.4-14.7 90.47-9.85 89.55-5 89.05-3.1L89.05-3.1Q93.2-3.15 97.6-8.5L97.6-8.5Q98.1-9 98.35-9 98.6-9 98.6-8.68 98.6-8.35 98.15-7.8L98.15-7.8Q95.25-4.4 92.75-3.05L92.75-3.05Q91.25-2.3 88.85-1.8L88.85-1.8ZM80.5-6.3L80.5-6.3Q80.5-4.6 81.62-3.53 82.75-2.45 84.15-2.45 85.55-2.45 86.3-3L86.3-3Q87.3-3.55 88.27-7.6 89.25-11.65 89.45-14.75L89.45-14.75 89.65-16.45Q86.9-14.4 83.77-11.15 80.65-7.9 80.55-6.85L80.55-6.85Q80.5-6.55 80.5-6.3ZM106.84-20.4Q107.59-20.4 108.27-19.93 108.94-19.45 108.94-18.8 108.94-18.15 108.32-17.68 107.69-17.2 106.94-17.2 106.19-17.2 105.57-17.75 104.94-18.3 104.94-19L104.94-19Q104.94-20.4 106.84-20.4L106.84-20.4ZM97.79 0.55L97.79 0.55Q95.24 0.55 95.24-2.75L95.24-2.75Q95.24-5.45 98.19-10.23 101.14-15 102.94-15.05L102.94-15.05Q103.44-15.05 104.07-14.65 104.69-14.25 104.69-13.85L104.69-13.85Q104.44-13.5 104.09-13.08 103.74-12.65 103.34-12.15 102.94-11.65 102.24-10.73 101.54-9.8 100.89-8.95L100.89-8.95Q97.14-4.1 97.14-2.27 97.14-0.45 98.39-0.45L98.39-0.45Q99.44-0.45 101.24-1.6L101.24-1.6Q105.44-4.2 107.89-7.3L107.89-7.3Q108.79-8.45 109.12-8.45 109.44-8.45 109.44-8.05 109.44-7.65 108.29-6.45 107.14-5.25 106.47-4.55 105.79-3.85 105.54-3.63 105.29-3.4 104.62-2.78 103.94-2.15 103.59-1.9 103.24-1.65 102.59-1.15 101.94-0.65 101.44-0.43 100.94-0.2 100.29 0.1L100.29 0.1Q99.24 0.55 97.79 0.55ZM111.09 0.65L111.09 0.65Q110.54 0.65 110.09 0.5L110.09 0.5Q106.89-0.4 106.89-3.1L106.89-3.1Q106.89-6.6 111.29-11.2 115.69-15.8 119.19-15.8L119.19-15.8Q120.34-15.8 121.07-15.18 121.79-14.55 121.79-13.48 121.79-12.4 121.14-11.23 120.49-10.05 119.19-10.05 117.89-10.05 117.89-10.85L117.89-10.85Q117.89-11.4 118.57-12.53 119.24-13.65 119.24-13.73 119.24-13.8 119.09-13.8L119.09-13.8Q117.69-13.65 115.27-11.8 112.84-9.95 111.94-8.7L111.94-8.7 109.99-5.85Q109.49-5.05 109.27-3.95 109.04-2.85 109.04-2.3 109.04-1.75 109.67-1.05 110.29-0.35 111.44-0.35L111.44-0.35Q113.94-0.35 117.64-3.28 121.34-6.2 123.34-8.85L123.34-8.85Q123.59-9.15 123.94-9.15 124.29-9.15 124.29-8.95 124.29-8.75 124.04-8.45L124.04-8.45Q121.29-4.8 117.47-2.08 113.64 0.65 111.09 0.65ZM126.69-13L126.69-13 131.54-12.95Q134.44-12.95 135.69-13.1L135.69-13.1Q135.74-13.05 135.74-12.95L135.74-12.95Q135.74-12.2 131.79-11.5L131.79-11.5Q129.64-11.2 127.76-10.88 125.89-10.55 125.36-10.55 124.84-10.55 123.61-10.78 122.39-11 122.39-11.75L122.39-11.75Q122.39-12.25 122.81-12.6 123.24-12.95 123.54-12.95 123.84-12.95 124.14-13L124.14-13 125.44-13Q125.99-13 126.69-13ZM147.69-12.45L147.69-12.45Q147.69-15.85 149.79-15.85L149.79-15.85Q149.99-15.85 150.24-15.8L150.24-15.8Q151.09-15.65 151.09-14.5 151.09-13.35 150.69-11.6L150.69-11.6Q150.29-10.3 150.14-9.65L150.14-9.65Q150.29-8.8 150.96-7.48 151.64-6.15 152.81-6.15 153.99-6.15 155.44-7.75L155.44-7.75Q155.74-8.1 156.01-8.1 156.29-8.1 156.31-7.78 156.34-7.45 155.94-6.9L155.94-6.9Q154.39-5.05 152.69-5.05L152.69-5.05Q150.24-5.05 148.74-8.65L148.74-8.65Q147.19-5.1 144.34-2.53 141.49 0.05 138.69 0.05L138.69 0.05Q136.04 0.05 136.04-3.95L136.04-3.95Q136.04-7.1 141.91-15.55 147.79-24 150.89-24L150.89-24Q151.54-24 152.06-23.6 152.59-23.2 152.59-22.65L152.59-22.65Q152.59-22.7 151.86-21.9 151.14-21.1 147.91-17.6 144.69-14.1 141.59-9.9 138.49-5.7 138.49-3.4L138.49-3.4Q138.49-2.8 138.81-2.1 139.14-1.4 139.89-1.4L139.89-1.4Q142.09-1.4 145.04-4.8L145.04-4.8Q147.49-7.8 148.04-9.85L148.04-9.85Q147.69-10.9 147.69-12.45ZM168.53 0.3L168.53 0.3Q168.28 0.35 167.46 0.35 166.63 0.35 165.81-0.3 164.98-0.95 164.98-1.98 164.98-3 165.36-4.25 165.73-5.5 165.88-6.15L165.88-6.15Q160.13 0.55 156.88 0.55L156.88 0.55Q154.83 0.55 154.63-2L154.63-2Q154.63-2.2 154.63-2.35L154.63-2.35Q154.63-4.5 157.23-8.15L157.23-8.15Q155.78-6.85 154.28-5.15L154.28-5.15Q154.08-4.95 153.78-4.95L153.78-4.95Q153.58-4.95 153.58-5.2 153.58-5.45 154.03-6.05L154.03-6.05 160.93-14.15Q162.23-15.65 163.58-15.65 164.93-15.65 164.93-14.75L164.93-14.75Q164.93-14.4 164.63-14.1L164.63-14.1Q162.63-12.25 159.61-7.95 156.58-3.65 156.58-1.6L156.58-1.6Q156.58-0.7 157.18-0.7L157.18-0.7Q159.28-0.7 163.28-4.85L163.28-4.85Q164.68-6.25 168.48-11.03 172.28-15.8 173.48-15.8L173.48-15.8Q175.28-15.8 175.28-14.4L175.28-14.4Q175.28-13.9 173.18-11.5L173.18-11.5Q170.33-8.05 168.83-5.88 167.33-3.7 167.33-2.35 167.33-1 168.08-1L168.08-1Q168.43-1 168.88-1.2L168.88-1.2Q172.33-2.7 177.13-8.2L177.13-8.2Q177.43-8.55 177.73-8.55 178.03-8.55 178.03-8.22 178.03-7.9 177.68-7.5L177.68-7.5Q175.53-5 172.63-2.48 169.73 0.05 168.53 0.3ZM192.18-15.15L192.18-15.15Q197.78-24.25 199.98-24.25L199.98-24.25Q200.33-24.25 200.96-24.03 201.58-23.8 201.58-23.35L201.58-23.35Q201.58-23.1 201.33-22.7L201.33-22.7Q197.33-17.8 195.38-15.35L195.38-15.35Q189.48-7.9 188.88-4.65L188.88-4.65Q188.73-3.95 188.73-3.25L188.73-3.25Q188.73-1 190.58-1L190.58-1Q194.28-1 200.23-7.85L200.23-7.85Q200.73-8.35 201.08-8.43 201.43-8.5 201.43-8.25 201.43-8 201.13-7.65L201.13-7.65Q195.33-0.7 190.83 0.1L190.83 0.1Q190.58 0.15 190.13 0.15L190.13 0.15Q188.58 0.15 187.81-0.93 187.03-2 187.03-3.25L187.03-3.25Q187.03-4.65 187.58-6.35L187.58-6.35 183.53-2.3Q180.78 0.25 179.21 0.25 177.63 0.25 176.58-0.6L176.58-0.6Q175.33-1.55 175.33-3.25L175.33-3.25Q175.33-6.9 180.43-11.98 185.53-17.05 189.78-17.05L189.78-17.05Q191.18-17.05 191.73-16.3L191.73-16.3Q191.93-16.05 192.18-15.15ZM177.43-2.65L177.43-2.65Q177.43-0.85 178.68-0.85L178.68-0.85Q180.83-0.85 185.83-6.75L185.83-6.75Q186.73-7.8 191.83-14.6L191.83-14.6Q191.48-15.2 190.63-15.2L190.63-15.2Q187.53-15.2 182.48-10.48 177.43-5.75 177.43-2.65ZM215.53-15.15L215.53-15.15Q221.13-24.25 223.33-24.25L223.33-24.25Q223.68-24.25 224.3-24.03 224.93-23.8 224.93-23.35L224.93-23.35Q224.93-23.1 224.68-22.7L224.68-22.7Q220.68-17.8 218.73-15.35L218.73-15.35Q212.83-7.9 212.23-4.65L212.23-4.65Q212.08-3.95 212.08-3.25L212.08-3.25Q212.08-1 213.93-1L213.93-1Q217.63-1 223.58-7.85L223.58-7.85Q224.08-8.35 224.43-8.43 224.78-8.5 224.78-8.25 224.78-8 224.48-7.65L224.48-7.65Q218.68-0.7 214.18 0.1L214.18 0.1Q213.93 0.15 213.48 0.15L213.48 0.15Q211.93 0.15 211.15-0.93 210.38-2 210.38-3.25L210.38-3.25Q210.38-4.65 210.93-6.35L210.93-6.35 206.88-2.3Q204.13 0.25 202.55 0.25 200.98 0.25 199.93-0.6L199.93-0.6Q198.68-1.55 198.68-3.25L198.68-3.25Q198.68-6.9 203.78-11.98 208.88-17.05 213.13-17.05L213.13-17.05Q214.53-17.05 215.08-16.3L215.08-16.3Q215.28-16.05 215.53-15.15ZM200.78-2.65L200.78-2.65Q200.78-0.85 202.03-0.85L202.03-0.85Q204.18-0.85 209.18-6.75L209.18-6.75Q210.08-7.8 215.18-14.6L215.18-14.6Q214.83-15.2 213.98-15.2L213.98-15.2Q210.88-15.2 205.83-10.48 200.78-5.75 200.78-2.65ZM219.68 5.8L219.68 5.8Q222.08 8.8 223.83 8.8L223.83 8.8Q226.68 8.8 229.98 4.25L229.98 4.25Q232.38 0.9 234.68-4.2L234.68-4.2 236.58-8.8 229.23-3.05Q225.83-0.4 223.78-0.4L223.78-0.4Q222.68-0.4 222.03-1.15 221.38-1.9 221.38-2.85L221.38-2.85Q221.38-5 225.08-9.93 228.78-14.85 230.48-14.85 232.18-14.85 232.18-13.7L232.18-13.7Q232.18-13.25 227.75-8.53 223.33-3.8 223.33-2.15L223.33-2.15Q223.33-1.5 224.18-1.5L224.18-1.5Q225.78-1.5 230.6-5.25 235.43-9 237.88-11.45L237.88-11.45Q238.43-12.1 239.43-13.4L239.43-13.4Q240.38-14.5 241.53-14.5 242.68-14.5 242.68-13.4L242.68-13.4Q242.68-13.2 240.43-9.85 238.18-6.5 238.08-6.3L238.08-6.3Q236.53-3.3 233.33 2.45L233.33 2.45Q228.48 10.25 223.63 10.25L223.63 10.25Q222.03 10.25 220.83 8.88 219.63 7.5 219.68 5.8Z" opacity="1" transform="matrix(1,0,0,1,0,0)" fill="#ffdb99" class="undefined-text-0" data-fill-palette-color="primary" id="text-0"></path></svg></g></svg></g><g transform="matrix(1,0,0,1,42.784000000000006,48.98928411409673)"><svg viewBox="0 0 138.432 23.578476818118524" height="23.578476818118524" width="138.432"><g transform="matrix(1,0,0,1,0,0)"><svg width="138.432" viewBox="1.850000023841858 -35.900001525878906 215.45989990234375 36.70000076293945" height="23.578476818118524" data-palette-color="#ff5db2"><path d="M3.7-35L17.2-35.05Q21.95-35.05 25.45-33.75 28.95-32.45 31.28-30.1 33.6-27.75 34.7-24.7 35.8-21.65 35.7-18.15L35.7-18.15Q35.6-14.9 34.38-11.68 33.15-8.45 30.7-5.83 28.25-3.2 24.5-1.6 20.75 0 15.6 0L15.6 0 1.85 0 2-2.75Q3.35-2.8 4.15-3.23 4.95-3.65 5.3-4.73 5.65-5.8 5.75-7.7L5.75-7.7 6.8-27.65Q6.9-28.9 7.03-30.05 7.15-31.2 7.25-31.85L7.25-31.85Q6.4-31.8 5.3-31.78 4.2-31.75 3.5-31.7L3.5-31.7 3.7-35ZM16.9-32.2L16.9-32.2Q15.45-32.25 14.6-31.85 13.75-31.45 13.38-30.45 13-29.45 12.9-27.5L12.9-27.5 11.85-7.45Q11.8-6.1 11.7-4.95 11.6-3.8 11.5-3.15L11.5-3.15Q12.2-3.15 13.08-3.13 13.95-3.1 14.85-3.08 15.75-3.05 16.45-3.05L16.45-3.05Q20.4-3.05 23.13-5.08 25.85-7.1 27.33-10.43 28.8-13.75 28.9-17.55L28.9-17.55Q29.15-24.8 26.03-28.45 22.9-32.1 16.9-32.2ZM52.2-35.9L54.8-35.9 64.15-8.25Q64.45-7.4 64.85-5.85 65.25-4.3 65.25-3.15L65.25-3.15 68.25-3.3 68.1 0 55.55 0 55.7-2.75Q57.25-2.75 57.85-3.4 58.45-4.05 58.4-5.1 58.35-6.15 57.95-7.25L57.95-7.25 56.9-10.65 45.35-10.45 44.05-7.1Q43.75-6.25 43.27-5.18 42.8-4.1 42.35-3.25L42.35-3.25 46.05-3.4 45.85 0 35.65 0 35.8-2.85Q37.15-2.85 38.05-3.65 38.95-4.45 39.62-5.78 40.3-7.1 41-8.75L41-8.75 52.2-35.9ZM51.9-27.75L51.9-27.75Q51.6-26.7 51.02-25.1 50.45-23.5 49.6-21.45L49.6-21.45 46.6-13.65 56-13.65 53.6-21.15Q53.1-22.85 52.65-24.58 52.2-26.3 51.9-27.75ZM72.75-35L86.25-35.05Q91-35.05 94.5-33.75 98-32.45 100.32-30.1 102.65-27.75 103.75-24.7 104.85-21.65 104.75-18.15L104.75-18.15Q104.65-14.9 103.42-11.68 102.2-8.45 99.75-5.83 97.3-3.2 93.55-1.6 89.8 0 84.65 0L84.65 0 70.9 0 71.05-2.75Q72.4-2.8 73.2-3.23 74-3.65 74.35-4.73 74.7-5.8 74.8-7.7L74.8-7.7 75.85-27.65Q75.95-28.9 76.07-30.05 76.2-31.2 76.3-31.85L76.3-31.85Q75.45-31.8 74.35-31.78 73.25-31.75 72.55-31.7L72.55-31.7 72.75-35ZM85.95-32.2L85.95-32.2Q84.5-32.25 83.65-31.85 82.8-31.45 82.42-30.45 82.05-29.45 81.95-27.5L81.95-27.5 80.9-7.45Q80.85-6.1 80.75-4.95 80.65-3.8 80.55-3.15L80.55-3.15Q81.25-3.15 82.12-3.13 83-3.1 83.9-3.08 84.8-3.05 85.5-3.05L85.5-3.05Q89.45-3.05 92.17-5.08 94.9-7.1 96.37-10.43 97.85-13.75 97.95-17.55L97.95-17.55Q98.2-24.8 95.07-28.45 91.95-32.1 85.95-32.2ZM109.54-35L123.04-35.05Q127.79-35.05 131.29-33.75 134.79-32.45 137.12-30.1 139.44-27.75 140.54-24.7 141.64-21.65 141.54-18.15L141.54-18.15Q141.44-14.9 140.22-11.68 138.99-8.45 136.54-5.83 134.09-3.2 130.34-1.6 126.59 0 121.44 0L121.44 0 107.69 0 107.84-2.75Q109.19-2.8 109.99-3.23 110.79-3.65 111.14-4.73 111.49-5.8 111.59-7.7L111.59-7.7 112.64-27.65Q112.74-28.9 112.87-30.05 112.99-31.2 113.09-31.85L113.09-31.85Q112.24-31.8 111.14-31.78 110.04-31.75 109.34-31.7L109.34-31.7 109.54-35ZM122.74-32.2L122.74-32.2Q121.29-32.25 120.44-31.85 119.59-31.45 119.22-30.45 118.84-29.45 118.74-27.5L118.74-27.5 117.69-7.45Q117.64-6.1 117.54-4.95 117.44-3.8 117.34-3.15L117.34-3.15Q118.04-3.15 118.92-3.13 119.79-3.1 120.69-3.08 121.59-3.05 122.29-3.05L122.29-3.05Q126.24-3.05 128.97-5.08 131.69-7.1 133.17-10.43 134.64-13.75 134.74-17.55L134.74-17.55Q134.99-24.8 131.87-28.45 128.74-32.1 122.74-32.2ZM169.69-35L180.54-35 180.39-32.25Q178.99-32.2 178.22-31.78 177.44-31.35 177.07-30.3 176.69-29.25 176.59-27.3L176.59-27.3 175.94-15.1Q175.69-11.15 174.59-8.15 173.49-5.15 171.62-3.18 169.74-1.2 167.14-0.2 164.54 0.8 161.29 0.8L161.29 0.8Q157.14 0.8 154.44-0.35 151.74-1.5 150.24-3.65 148.74-5.8 148.24-8.8 147.74-11.8 147.94-15.45L147.94-15.45 148.59-27.5Q148.69-28.85 148.77-29.98 148.84-31.1 148.99-31.85L148.99-31.85Q148.19-31.8 147.07-31.78 145.94-31.75 145.29-31.7L145.29-31.7 145.44-35 158.69-35 158.49-32.25Q157.19-32.2 156.39-31.8 155.59-31.4 155.22-30.53 154.84-29.65 154.74-28.05L154.74-28.05 154.04-14.65Q153.89-11.6 154.34-9.38 154.79-7.15 155.84-5.68 156.89-4.2 158.49-3.45 160.09-2.7 162.19-2.7L162.19-2.7Q165.24-2.6 167.37-3.95 169.49-5.3 170.67-7.88 171.84-10.45 172.04-14.25L172.04-14.25 172.84-27.65Q172.94-28.9 173.02-30.05 173.09-31.2 173.24-31.85L173.24-31.85Q172.39-31.8 171.29-31.78 170.19-31.75 169.54-31.7L169.54-31.7 169.69-35ZM184.19-35.8L188.99-35.8 187.94-24.55 183.99-24.55 184.19-35.8ZM204.29 0.8L204.29 0.8Q202.39 0.8 200.01 0.23 197.64-0.35 195.74-1.55L195.74-1.55 195.79 0.45 192.34 0.45 192.84-10.9 195.69-10.9Q195.89-8.05 197.09-6.13 198.29-4.2 200.26-3.25 202.24-2.3 204.64-2.3L204.64-2.3Q206.49-2.3 207.99-2.98 209.49-3.65 210.39-4.83 211.29-6 211.39-7.5L211.39-7.5Q211.49-9.5 210.29-10.83 209.09-12.15 207.19-13.08 205.29-14 203.24-14.9L203.24-14.9Q200.39-16.1 198.01-17.6 195.64-19.1 194.31-21.23 192.99-23.35 193.14-26.5L193.14-26.5Q193.24-27.95 193.86-29.58 194.49-31.2 195.84-32.6 197.19-34 199.39-34.9 201.59-35.8 204.84-35.8L204.84-35.8Q206.79-35.8 209.14-35.23 211.49-34.65 213.19-33.35L213.19-33.35 213.14-35.45 216.54-35.45 215.99-24 213.19-24Q212.99-26.65 211.99-28.63 210.99-30.6 209.21-31.68 207.44-32.75 204.89-32.75L204.89-32.75Q202.44-32.75 200.71-31.35 198.99-29.95 198.89-27.9L198.89-27.9Q198.84-26.2 199.69-24.98 200.54-23.75 202.24-22.73 203.94-21.7 206.39-20.65L206.39-20.65Q208.29-19.85 210.24-18.85 212.19-17.85 213.84-16.53 215.49-15.2 216.46-13.38 217.44-11.55 217.29-9.1L217.29-9.1Q217.19-6.2 215.54-3.95 213.89-1.7 211.01-0.45 208.14 0.8 204.29 0.8Z" opacity="1" transform="matrix(1,0,0,1,0,0)" fill="#ff5db2" class="undefined-text-1" data-fill-palette-color="secondary" id="text-1"></path></svg></g></svg></g></svg></g></svg></g><g transform="matrix(1,0,0,1,233.35637795452666,0)"><svg viewBox="0 0 100.2886456083215 100.2886456083215" height="100.2886456083215" width="100.2886456083215"><g data-palette-color="#ff5db2"><rect width="27.412229799607882" height="100.2886456083215" fill="#ff5db2" stroke="transparent" data-fill-palette-color="accent" x="0" fill-opacity="1"></rect><rect width="27.412229799607882" height="100.2886456083215" fill="#ff5db2" stroke="transparent" data-fill-palette-color="accent" x="33.42954853610717" fill-opacity="0.75"></rect><rect width="27.412229799607882" height="100.2886456083215" fill="#ff5db2" stroke="transparent" data-fill-palette-color="accent" x="66.85909707221434" fill-opacity="0.5"></rect></g></svg></g></svg></g></svg></g></svg></g></svg><rect width="320" height="360" fill="none" stroke="none" visibility="hidden"></rect></g></svg></g></svg>